<?xml version="1.0" encoding="iso-8859-1"?>
<svg version="1.1" id="Capa_1" xmlns="http://www.w3.org/2000/svg" xmlns:xlink="http://www.w3.org/1999/xlink" x="0px" y="0px"
	 viewBox="0 0 512 512" style="enable-background:new 0 0 512 512;" xml:space="preserve">
<path style="fill:#303C42;" d="M508.875,248.458l-74.667-74.667c-4.167-4.167-10.917-4.167-15.083,0
	c-4.167,4.167-4.167,10.917,0,15.083l56.458,56.458H340.255c-4.868-38.447-35.135-68.719-73.589-73.589V36.417l56.458,56.458
	c2.083,2.083,4.813,3.125,7.542,3.125c2.729,0,5.458-1.042,7.542-3.125c4.167-4.167,4.167-10.917,0-15.083L263.542,3.125
	c-4.167-4.167-10.917-4.167-15.083,0l-74.667,74.667c-4.167,4.167-4.167,10.917,0,15.083c4.167,4.167,10.917,4.167,15.083,0
	l56.458-56.458v135.328c-38.453,4.87-68.72,35.142-73.589,73.589H36.417l56.458-56.458c4.167-4.167,4.167-10.917,0-15.083
	c-4.167-4.167-10.917-4.167-15.083,0L3.125,248.458c-4.167,4.167-4.167,10.917,0,15.083l74.667,74.667
	c2.083,2.083,4.813,3.125,7.542,3.125s5.458-1.042,7.542-3.125c4.167-4.167,4.167-10.917,0-15.083l-56.458-56.458h135.328
	c4.868,38.447,35.135,68.719,73.589,73.589v135.328l-56.458-56.458c-4.167-4.167-10.917-4.167-15.083,0
	c-4.167,4.167-4.167,10.917,0,15.083l74.667,74.667c2.083,2.083,4.813,3.125,7.542,3.125c2.729,0,5.458-1.042,7.542-3.125
	l74.667-74.667c4.167-4.167,4.167-10.917,0-15.083c-4.167-4.167-10.917-4.167-15.083,0l-56.458,56.458V340.255
	c38.453-4.87,68.72-35.142,73.589-73.589h135.328l-56.458,56.458c-4.167,4.167-4.167,10.917,0,15.083
	c2.083,2.083,4.813,3.125,7.542,3.125c2.729,0,5.458-1.042,7.542-3.125l74.667-74.667
	C513.042,259.375,513.042,252.625,508.875,248.458z M256,320c-35.292,0-64-28.708-64-64s28.708-64,64-64s64,28.708,64,64
	S291.292,320,256,320z"/>
<linearGradient id="SVGID_1_" gradientUnits="userSpaceOnUse" x1="-44.6024" y1="639.1005" x2="-24.8039" y2="629.8682" gradientTransform="matrix(21.3333 0 0 -21.3333 996.3334 13791.667)">
	<stop  offset="0" style="stop-color:#FFFFFF;stop-opacity:0.2"/>
	<stop  offset="1" style="stop-color:#FFFFFF;stop-opacity:0"/>
</linearGradient>
<path style="fill:url(#SVGID_1_);" d="M508.875,248.458l-74.667-74.667c-4.167-4.167-10.917-4.167-15.083,0
	c-4.167,4.167-4.167,10.917,0,15.083l56.458,56.458H340.255c-4.868-38.447-35.135-68.719-73.589-73.589V36.417l56.458,56.458
	c2.083,2.083,4.813,3.125,7.542,3.125c2.729,0,5.458-1.042,7.542-3.125c4.167-4.167,4.167-10.917,0-15.083L263.542,3.125
	c-4.167-4.167-10.917-4.167-15.083,0l-74.667,74.667c-4.167,4.167-4.167,10.917,0,15.083c4.167,4.167,10.917,4.167,15.083,0
	l56.458-56.458v135.328c-38.453,4.87-68.72,35.142-73.589,73.589H36.417l56.458-56.458c4.167-4.167,4.167-10.917,0-15.083
	c-4.167-4.167-10.917-4.167-15.083,0L3.125,248.458c-4.167,4.167-4.167,10.917,0,15.083l74.667,74.667
	c2.083,2.083,4.813,3.125,7.542,3.125s5.458-1.042,7.542-3.125c4.167-4.167,4.167-10.917,0-15.083l-56.458-56.458h135.328
	c4.868,38.447,35.135,68.719,73.589,73.589v135.328l-56.458-56.458c-4.167-4.167-10.917-4.167-15.083,0
	c-4.167,4.167-4.167,10.917,0,15.083l74.667,74.667c2.083,2.083,4.813,3.125,7.542,3.125c2.729,0,5.458-1.042,7.542-3.125
	l74.667-74.667c4.167-4.167,4.167-10.917,0-15.083c-4.167-4.167-10.917-4.167-15.083,0l-56.458,56.458V340.255
	c38.453-4.87,68.72-35.142,73.589-73.589h135.328l-56.458,56.458c-4.167,4.167-4.167,10.917,0,15.083
	c2.083,2.083,4.813,3.125,7.542,3.125c2.729,0,5.458-1.042,7.542-3.125l74.667-74.667
	C513.042,259.375,513.042,252.625,508.875,248.458z M256,320c-35.292,0-64-28.708-64-64s28.708-64,64-64s64,28.708,64,64
	S291.292,320,256,320z"/>
<g>
</g>
<g>
</g>
<g>
</g>
<g>
</g>
<g>
</g>
<g>
</g>
<g>
</g>
<g>
</g>
<g>
</g>
<g>
</g>
<g>
</g>
<g>
</g>
<g>
</g>
<g>
</g>
<g>
</g>
</svg>
